<?xml version="1.0" standalone="no"?>
<!DOCTYPE svg PUBLIC "-//W3C//DTD SVG 20010904//EN"
 "http://www.w3.org/TR/2001/REC-SVG-20010904/DTD/svg10.dtd">
<svg version="1.0" xmlns="http://www.w3.org/2000/svg"
 width="512.000000pt" height="512.000000pt" viewBox="0 0 512.000000 512.000000"
 preserveAspectRatio="xMidYMid meet">

<g transform="translate(0.000000,512.000000) scale(0.100000,-0.100000)"
fill="#b1b1b1ff" stroke="none">
<path d="M2315 5109 c-637 -65 -1215 -355 -1647 -826 -621 -679 -828 -1645
-538 -2523 128 -388 331 -719 621 -1009 406 -405 901 -648 1494 -733 118 -17
512 -17 630 0 593 85 1088 328 1494 733 405 406 648 901 733 1494 17 118 17
512 0 630 -85 593 -328 1088 -733 1494 -396 396 -880 638 -1449 726 -125 19
-477 28 -605 14z m565 -285 c926 -133 1676 -810 1899 -1715 50 -205 64 -321
64 -549 0 -228 -14 -344 -64 -549 -203 -825 -845 -1467 -1670 -1670 -205 -50
-321 -64 -549 -64 -228 0 -344 14 -549 64 -825 203 -1467 845 -1670 1670 -50
205 -64 321 -64 549 0 228 14 344 64 549 150 608 537 1121 1083 1436 285 164
608 264 946 295 124 11 377 4 510 -16z"/>
<path d="M2685 3807 c-86 -29 -153 -84 -193 -161 -23 -44 -27 -63 -27 -136 0
-73 4 -92 27 -135 31 -59 101 -128 154 -150 198 -83 417 66 417 285 0 119 -64
225 -168 275 -64 32 -152 41 -210 22z"/>
<path d="M2383 2976 c-177 -6 -323 -13 -326 -16 -6 -7 -47 -163 -47 -178 0 -9
31 -12 104 -12 56 0 117 -5 134 -11 43 -15 65 -65 56 -127 -3 -26 -62 -218
-130 -427 -68 -210 -130 -410 -138 -445 -49 -208 15 -370 170 -430 83 -32 230
-33 329 -2 146 45 295 164 423 336 74 99 152 220 152 235 0 8 -92 84 -127 104
-7 5 -26 -16 -49 -55 -109 -178 -255 -338 -310 -338 -30 0 -48 33 -40 73 3 16
92 313 196 658 105 345 190 632 190 638 0 13 -125 12 -587 -3z"/>
</g>
</svg>
